<?xml version="1.0" encoding="utf-8"?>
<!-- Generator: Adobe Illustrator 22.1.0, SVG Export Plug-In . SVG Version: 6.00 Build 0)  -->
<svg version="1.1" id="lcoations" xmlns="http://www.w3.org/2000/svg" xmlns:xlink="http://www.w3.org/1999/xlink" x="0px" y="0px"
	 viewBox="0 0 152 152" style="enable-background:new 0 0 152 152;" xml:space="preserve">
<style type="text/css">
	.st0{fill:url(#Kształt_698_1_);}
	.st1{fill:none;stroke:#101C4F;stroke-linecap:round;stroke-linejoin:round;}
	.st2{fill:none;stroke:#101C4F;stroke-linecap:round;stroke-linejoin:round;enable-background:new    ;}
	.st3{fill:#007BFC;}
	.st4{fill:#FFFFFF;stroke:#007BFC;}
	.st5{fill:#0066FF;}
</style>
<g id="globe">
	<g id="Grupa_102">
		<linearGradient id="Kształt_698_1_" gradientUnits="userSpaceOnUse" x1="19.4512" y1="67.79" x2="120.8911" y2="67.79">
			<stop  offset="0" style="stop-color:#AFCDFD"/>
			<stop  offset="1" style="stop-color:#D7E6FE"/>
		</linearGradient>
		<path id="Kształt_698" class="st0" d="M86.3,74.3l-0.6-2.6l1.9-1.9l2.5,3.2c0,0,1.7,2.7,0.6,2.6S86.3,74.3,86.3,74.3z
			 M80.6,120.2l2.5-5.7v-10.1l-5.7-7.6l-0.6-10.1l7.6-6.3l3.1,1.9l4.4-1.9l6.3,4.4l3.8,1.3l8.8-1.9l2.5,3.8l-6.3,13.3l-2.5,5.7
			l-4.4,1.3l-5,5.7l-5,5.7l-0.2,0.3c-3,1-6.1,1.8-9.2,2.3L80.6,120.2L80.6,120.2z M20.8,90.5l8.2,0.4l7.6,3.8c0,0-4,9.9,0,9.6
			s3.2,3.2,3.2,3.2l-3.7,2.6C29.7,104.7,24.4,98,20.8,90.5z M118.4,40.6l-8.2-1.3l-4.4,3.8l-5.7-3.2v-5.1l-1.9-3.2l-5.7-5.7h-4.4
			l-3.8-3.8l-3.1,5.1l3.8,1.3l8.2,6.3l-5.7,3.8l0.6,2.5h3.8l0.6,3.8l4.4,3.8l-5,2.5l-0.6,3.2l-8.2,4.4l-3.8,8.9l-3.1,1.9V64L68,70.3
			l-0.6,5.1l3.8-3.2l1.9,1.3L72.4,76l3.8,1.9l-0.6,6.3L68,79.1l-6.3-1.3l-3.1-5.7l-4.4-2.5l-5-6.9v-9.5l-5.7-7L34.6,45l-5,4.4
			l-10.2-4.5c0.3-0.8,0.7-1.6,1.1-2.4l11.6-10.1l12.6-1.3l10.7,0.6l-0.6-2.5l0.6-2.5l-0.6-3.2l1.9-1.3l10.1,4.4l6.3-8.2l4.4-2.5
			l4.4,1.9l5-4.4l34,25.3L118.4,40.6z"/>
		<circle id="Elipsa_768" class="st1" cx="71.9" cy="66.1" r="56.5"/>
		<path id="Elipsa_768_kopia_10" class="st2" d="M120.5,36.9c1.2,0.6,1,0.5,2.1,1.2c27.9,16.4,27.9,42.9,0,59.3
			s-73.2,16.4-101.1,0.1s-27.9-42.9,0-59.3c0.9-0.6,0.9-0.6,1.9-1.1"/>
		<path id="Elipsa_768_kopia_3" class="st1" d="M78.1,122.3c-1.9,1.4-4.2,3-6.2,4.2c-28.3,16.4-51.2,3.1-51.2-29.6
			s22.9-72.6,51.2-89s51.2-3.1,51.2,29.6c0,1.7,0,2.6-0.2,4.3"/>
		<path id="Elipsa_768_kopia_7" class="st1" d="M65.6,122.3c1.9,1.4,4.2,3,6.3,4.2c28.3,16.4,51.2,3.1,51.2-29.7
			S100.2,23.9,71.9,7.5S20.7,4.4,20.7,37.3c0,1.7,0,2.8,0.1,4.5"/>
		<path id="Elipsa_2843_kopia" class="st3" d="M2.4,75.4c1.3,0,2.4,1.1,2.4,2.4c0,1.3-1.1,2.4-2.4,2.4c-1.3,0-2.4-1.1-2.4-2.4
			c0,0,0,0,0,0C0,76.5,1.1,75.4,2.4,75.4C2.4,75.4,2.4,75.4,2.4,75.4z"/>
		<circle id="Elipsa_2843_kopia_2" class="st3" cx="112.8" cy="54.7" r="2.4"/>
		<path id="Elipsa_2843_kopia_3" class="st3" d="M44.6,31.1c1.3,0,2.4,1.1,2.4,2.4c0,1.3-1.1,2.4-2.4,2.4s-2.4-1.1-2.4-2.4
			c0,0,0,0,0,0C42.2,32.2,43.3,31.1,44.6,31.1z"/>
	</g>
</g>
<g id="pin">
	<path id="Elipsa_1309" class="st4" d="M120.5,134.6c6.6-3.8,17.4-3.8,24,0s6.6,10,0,13.9s-17.4,3.8-24,0S113.9,138.4,120.5,134.6z"
		/>
	<path id="Kształt_1743_kopia" class="st5" d="M147.1,79.9c-2-1.2-5.9-3.5-6.9-4.3c-3.2-1.6-7.6-1.5-12.5,1.4
		c-9.8,5.7-17.8,19.6-17.8,30.9c0,18.2,16.2,30.4,16.9,30.9c0.2,0.2,6.7,4.3,6.9,3.9 M129.2,92.9L129.2,92.9
		c3.7-2.1,6.7-0.4,6.7,3.9s-3,9.6-6.7,11.6s-6.6,0.4-6.6-3.9C122.8,99.8,125.3,95.5,129.2,92.9"/>
	<path id="Kształt_1743" class="st3" d="M134.2,80.8c-9.8,5.7-17.8,19.6-17.8,30.9c0,18.2,16.2,30.4,16.9,30.9
		c0.3,0.2,0.6,0.2,0.9,0c0.4-0.2,0.7-0.5,0.9-0.9c0.7-1.4,16.9-32.9,16.9-50.5c0-5.5-2-9.6-5-11.4C143.7,77.9,139.1,78.1,134.2,80.8
		z M134.2,94.9c3.7-2.1,6.7-0.4,6.7,3.9s-3,9.6-6.7,11.6s-6.6,0.4-6.6-3.9C127.8,101.8,130.3,97.5,134.2,94.9L134.2,94.9z"/>
</g>
</svg>
