<?xml version="1.0" encoding="utf-8"?>
<!-- Generator: Adobe Illustrator 22.1.0, SVG Export Plug-In . SVG Version: 6.00 Build 0)  -->
<svg version="1.1" id="no-contract" xmlns="http://www.w3.org/2000/svg" xmlns:xlink="http://www.w3.org/1999/xlink" x="0px"
	 y="0px" viewBox="0 0 152 151.7" style="enable-background:new 0 0 152 151.7;" xml:space="preserve">
<style type="text/css">
	.st0{fill:none;stroke:#007BFC;stroke-width:2;}
	.st1{fill:none;stroke:#007BFC;stroke-width:2;stroke-linecap:round;}
	.st2{fill:#FFFFFF;stroke:#101C4F;stroke-linecap:round;stroke-linejoin:round;}
	.st3{fill:#FFFFFF;stroke:#101C4F;stroke-width:0.9637;stroke-linecap:round;stroke-linejoin:round;}
	.st4{fill:none;}
	.st5{fill:none;stroke:#101C4F;stroke-linecap:round;stroke-linejoin:round;}
	.st6{fill:url(#Kształt_2901_1_);}
	.st7{fill:#9CC1FD;}
	.st8{fill:url(#Elipsa_2892_kopia_1_);}
	.st9{fill:url(#Elipsa_2892_kopia_4_1_);}
	.st10{fill:url(#Elipsa_2892_kopia_2_1_);}
	.st11{fill:#79A5EB;}
	.st12{fill:#0066FF;}
	.st13{fill:#007BFC;}
	.st14{fill:none;stroke:#FFFFFF;stroke-width:2;stroke-linecap:round;stroke-linejoin:round;}
	.st15{fill:url(#SVGID_1_);}
</style>
<path id="Elipsa_2915" class="st0" d="M138,23.5c7.2,4.2,13,14.4,13,22.8s-5.8,11.8-13,7.6s-13-14.4-13-22.8S130.8,19.3,138,23.5z"
	/>
<path id="Kształt_2951" class="st1" d="M137,31.7v7l5,7"/>
<g id="paper">
	<path id="Prostokąt_2894_kopia" class="st2" d="M65.5,7.2V28l-65,37.6V41.3c0,0,0-0.1,0-0.4c0-4.7,2.6-5.5,6.3-3.3
		c0.8,0.4,2.7,0,3.3,0.6L65.5,7.2z"/>
	<path id="Prostokąt_2894" class="st3" d="M46.3,128c0,0-25.4-14.8-25.5-14.9c-4.2-2.7-6.9-7.2-7.2-12.1c0,0,0-43.3,0-51.5
		c0-4.5-3.2-10-7.2-12.3c-1.1-0.7-2.8-1.2-4.2-0.5L63.5,1.1c0,0,2.3-1.3,5.4,0.5c4,2.3,7.5,7.8,7.5,12.3c0,0.1,0,44.1,0,51.1
		c0.3,5.1,2.7,9.7,6.9,12.4c9.5,5.4,24.6,13.9,24.6,13.9L46.3,128z"/>
	<g transform="translate(-3361 -3781.31)">
		<path id="Kształt_2907_kopia_3" class="st4" d="M3388,3841l42-24 M3388,3833l18-10 M3388,3849l42-24 M3388,3857l42-24 M3388,3873
			l34-19 M3388,3865l42-24"/>
	</g>
	<path id="Kształt_2902" class="st5" d="M44,107.7c0,0,9.1-4.1,7,1s-6.3,9.1-1,5s5-8,5-8s-1.7,5.3,3,3s1.5-7.9,4-6s3.5,3.3,6,0"/>
</g>
<g id="feather">
	<linearGradient id="Kształt_2901_1_" gradientUnits="userSpaceOnUse" x1="76" y1="37.9234" x2="147.7307" y2="37.9234">
		<stop  offset="0" style="stop-color:#AFCDFD"/>
		<stop  offset="1" style="stop-color:#D7E6FE"/>
	</linearGradient>
	<path id="Kształt_2901" class="st6" d="M79.5,74.8c0,0-14.7-10.4,16-43.1c5.1-5.4,43.6-37.9,51.1-30.5s-22.1,25.9-34,47.4
		C96.8,76.6,82.1,75.8,82.1,75.8L79.5,74.8z"/>
	<path id="Kształt_2900" class="st7" d="M67,103.7c0,0,12.4-29.4,19.4-43.7c14.1-28.7,43.9-46.7,43.9-46.7S100.4,38.3,90.4,58
		c-6.7,13.2-17.3,38.6-17.3,38.6L67,103.7z"/>
</g>
<g id="bottle">
	<linearGradient id="Elipsa_2892_kopia_1_" gradientUnits="userSpaceOnUse" x1="0" y1="120.638" x2="39.0065" y2="120.638">
		<stop  offset="0" style="stop-color:#AFCDFD"/>
		<stop  offset="1" style="stop-color:#D7E6FE"/>
	</linearGradient>
	<path id="Elipsa_2892_kopia" class="st8" d="M39,130.5c0,0,0.4,5-5.7,8.9c-7.4,4.7-20,4.4-27.6,0C1.4,137,0,133.9,0,130.7v-22
		c0.4-2.5,2.4-5,5.7-6.9c7.6-4.4,20-4.4,27.6,0c3.4,1.9,5.2,4.4,5.6,6.9H39V130.5z"/>
	
		<linearGradient id="Elipsa_2892_kopia_4_1_" gradientUnits="userSpaceOnUse" x1="-7.537842e-03" y1="109.645" x2="38.9776" y2="109.645">
		<stop  offset="0" style="stop-color:#97BEFC"/>
		<stop  offset="1" style="stop-color:#ABCAFF"/>
	</linearGradient>
	<path id="Elipsa_2892_kopia_4" class="st9" d="M5.7,101.8c7.6-4.4,20-4.4,27.6,0s7.6,11.4,0,15.8s-20,4.4-27.6,0
		S-1.9,106.1,5.7,101.8z"/>
	<linearGradient id="Elipsa_2892_kopia_2_1_" gradientUnits="userSpaceOnUse" x1="7.9994" y1="105.1562" x2="30" y2="105.1562">
		<stop  offset="0" style="stop-color:#AFCDFD"/>
		<stop  offset="1" style="stop-color:#D7E6FE"/>
	</linearGradient>
	<path id="Elipsa_2892_kopia_2" class="st10" d="M30,107.4L30,107.4c0,1.6-1.1,3.1-3.2,4.4c-4.9,2.4-10.6,2.4-15.6,0
		C9,110.6,8,109,8,107.4v-5.7c0.6-1.5,1.7-2.6,3.2-3.2c4.9-2.3,10.6-2.3,15.6,0c1.7,0.9,2.9,2,3.2,3.3V107.4z"/>
	<path id="Elipsa_2892_kopia_3" class="st11" d="M13.3,99.9c3.6-1.6,7.7-1.6,11.3,0c3.1,1.6,3.1,4.1,0,5.6c-3.6,1.6-7.7,1.6-11.3,0
		C10.2,103.9,10.2,101.4,13.3,99.9z"/>
</g>
<path id="Prostokąt_zaokrąglony_1356_kopia_10" class="st12" d="M95.3,96.3l51-28.7c1.8-1,4.8,2.3,4.8,2.3l-54.6,81.8
	c0,0-4.5-1-4.5-2.7v-47.6C92.2,99.2,93.5,97.3,95.3,96.3z"/>
<path id="Prostokąt_zaokrąglony_1356_kopia_9" class="st13" d="M98.3,98.3l50.4-28.1c1.8-1,3.3-0.4,3.3,1.3v46.6
	c-0.2,2.1-1.4,4-3.3,5l-50.4,28.1c-1.8,1-3.3,0.4-3.3-1.3v-46.6C95.2,101.2,96.4,99.3,98.3,98.3z"/>
<g id="x">
	<path id="Kształt_2955" class="st14" d="M114.9,105.4l18.2,10.5"/>
	<path id="Kształt_2955_kopia" class="st14" d="M133.1,94.9l-18.2,31.5"/>
</g>
	<linearGradient id="SVGID_1_" gradientUnits="userSpaceOnUse" x1="26.4999" y1="64.6891" x2="69.5001" y2="64.6891">
		<stop  offset="0" style="stop-color:#AFCDFD"/>
		<stop  offset="1" style="stop-color:#D7E6FE"/>
	</linearGradient>
	<path class="st15" d="M27,93.2c-0.2,0-0.3-0.1-0.4-0.3c-0.1-0.2,0-0.5,0.2-0.7l34-19c0.2-0.1,0.5,0,0.7,0.2c0.1,0.2,0,0.5-0.2,0.7
		l-34,19C27.2,93.2,27.1,93.2,27,93.2z M27,85.2c-0.2,0-0.3-0.1-0.4-0.3c-0.1-0.2-0.1-0.5,0.2-0.7l42-24c0.2-0.1,0.5-0.1,0.7,0.2
		s0.1,0.5-0.2,0.7l-42,24C27.2,85.2,27.1,85.2,27,85.2z M27,77.2c-0.2,0-0.3-0.1-0.4-0.3c-0.1-0.2-0.1-0.5,0.2-0.7l42-24
		c0.2-0.1,0.5-0.1,0.7,0.2c0.1,0.2,0.1,0.5-0.2,0.7l-42,24C27.2,77.2,27.1,77.2,27,77.2z M27,69.2c-0.2,0-0.3-0.1-0.4-0.3
		c-0.1-0.2-0.1-0.5,0.2-0.7l42-24c0.2-0.1,0.5-0.1,0.7,0.2s0.1,0.5-0.2,0.7l-42,24C27.2,69.2,27.1,69.2,27,69.2z M27,61.2
		c-0.2,0-0.3-0.1-0.4-0.3c-0.1-0.2-0.1-0.5,0.2-0.7l42-24c0.2-0.1,0.5-0.1,0.7,0.2c0.1,0.2,0.1,0.5-0.2,0.7l-42,24
		C27.2,61.2,27.1,61.2,27,61.2z M27,53.2c-0.2,0-0.3-0.1-0.4-0.3c-0.1-0.2,0-0.5,0.2-0.7l18-10c0.2-0.1,0.5,0,0.7,0.2
		c0.1,0.2,0,0.5-0.2,0.7l-18,10C27.2,53.2,27.1,53.2,27,53.2z"/>

</svg>
