<svg version="1.1" id="server-front" xmlns="http://www.w3.org/2000/svg" x="0" y="0" viewBox="0 0 425 177" xml:space="preserve"><style>.st2,.st3{opacity:.32;fill:none;stroke:#142149;stroke-width:4;stroke-linecap:round;stroke-linejoin:round;enable-background:new}.st3{opacity:.48}</style><linearGradient id="body_1_" gradientUnits="userSpaceOnUse" x1="0" y1="88.495" x2="425" y2="88.495"><stop offset=".48" stop-color="#d2d8e6"/><stop offset=".52" stop-color="#e0e4ef"/></linearGradient><path id="body_2_" d="M3.5 2.4C5.6 3.6 202 117.7 204.2 119c5.3 2.7 11.5 2.7 16.7 0C223 117.7 419.4 3.6 421.6 2.4c1-.6 1.9-1.4 2.6-2.4h.8v55.2c0 1.9-1.3 3.6-3.5 4.8S223 173.8 220.9 175c-5.3 2.6-11.5 2.6-16.7 0C202 173.8 5.6 61.2 3.5 60S0 57.1 0 55.2V0h.8c.7 1 1.6 1.8 2.7 2.4z" fill="url(#body_1_)"/><linearGradient id="body-gradient_1_" gradientUnits="userSpaceOnUse" x1="0" y1="88.495" x2="425" y2="88.495"><stop offset="0" stop-color="#bbc1d4" stop-opacity="0"/><stop offset=".35" stop-color="#bbc1d4" stop-opacity=".7"/><stop offset="1" stop-color="#bbc1d4" stop-opacity="0"/></linearGradient><path id="body-gradient" d="M3.5 2.4C5.6 3.6 202 117.7 204.2 119c5.3 2.7 11.5 2.7 16.7 0C223 117.7 419.4 3.6 421.6 2.4c1-.6 1.9-1.4 2.6-2.4h.8v55.2c0 1.9-1.3 3.6-3.5 4.8S223 173.8 220.9 175c-5.3 2.6-11.5 2.6-16.7 0C202 173.8 5.6 61.2 3.5 60S0 57.1 0 55.2V0h.8c.7 1 1.6 1.8 2.7 2.4z" fill="url(#body-gradient_1_)"/><path id="Kształt_2151" class="st2" d="M111.5 94.5l75 43"/><g id="Warstwa_3"><path id="Kształt_2147" class="st2" d="M25.5 38.5l10 6"/><path id="Kształt_2147_kopia" class="st3" d="M25.5 48.5l10 6"/><path id="Kształt_2147_kopia_2" class="st3" d="M43.5 48.5l10 6"/><path id="Kształt_2147_kopia_2-2" class="st2" d="M43.5 58.5l10 6"/></g><g id="Warstwa_2"><path id="Kształt_1941_kopia_4" class="st2" d="M384 47v14"/><path id="Kształt_1941_kopia_3" class="st2" d="M392 42v14"/><path id="Kształt_1941_kopia_2" class="st2" d="M400 37v15"/><path id="Kształt_1941_kopia" class="st2" d="M408 33v14"/></g><linearGradient id="top_1_" gradientUnits="userSpaceOnUse" x1="-.285" y1="61.2" x2="424.315" y2="61.2"><stop offset="0" stop-color="#e0e4ef"/><stop offset="1" stop-color="#ebeef5"/></linearGradient><path id="top" d="M12.7 0c.5 1.5 1.6 2.8 3.1 3.6 2 1.2 186.4 108.4 188.4 109.6 4.9 2.5 10.8 2.5 15.7 0 2-1.2 186.4-108.4 188.4-109.6 1.5-.7 2.6-2 3.1-3.6h12.9c-.6 1.5-1.8 2.8-3.2 3.6-2.1 1.2-198.6 115.6-200.7 116.8-5.2 2.7-11.5 2.7-16.7 0C201.5 119.1 5.1 4.8 3 3.6 1.5 2.8.3 1.5-.3 0h13z" fill="url(#top_1_)"/></svg>