<?xml version="1.0" encoding="utf-8"?>
<!-- Generator: Adobe Illustrator 22.1.0, SVG Export Plug-In . SVG Version: 6.00 Build 0)  -->
<svg version="1.1" id="choose-os" xmlns="http://www.w3.org/2000/svg" xmlns:xlink="http://www.w3.org/1999/xlink" x="0px" y="0px"
	 viewBox="0 0 154 146.5" style="enable-background:new 0 0 154 146.5;" xml:space="preserve">
<style type="text/css">
	.st0{fill:#FFFFFF;stroke:#142149;stroke-linecap:round;stroke-linejoin:round;}
	.st1{fill:#FFFFFF;stroke:#142149;}
	.st2{fill:url(#Prostokąt_545_kopia_4_1_);}
	.st3{fill:url(#Prostokąt_545_kopia_5_1_);}
	.st4{fill:#8DAEE3;}
	.st5{fill:url(#Elipsa_1306_kopia_15_1_);}
	.st6{fill:#9DC1FD;}
	.st7{fill:none;stroke:#101C4F;}
	.st8{fill:#101C4F;stroke:#101C4F;stroke-width:2;stroke-linecap:round;stroke-linejoin:round;}
	.st9{fill:#0066FF;}
	.st10{fill:#007BFC;}
	.st11{fill:#FFFFFF;}
</style>
<g id="shelf-left">
	<path id="Kształt_696_kopia_2" class="st0" d="M49.5,5.5l-12-5l-37,21v79l11,6L49.5,5.5z"/>
	<path id="Kształt_657" class="st0" d="M11.5,106.5l38-23v-78l-38,21V106.5z"/>
	<path id="Kształt_531" class="st0" d="M40.5,10.5v66l-28,17"/>
	<path id="Kształt_531_kopia" class="st1" d="M49.5,63.5l-38,22v-12l29-16l9,3.4v-1.4V63.5z"/>
	<path id="Kształt_531_kopia_2" class="st1" d="M49.5,45.5l-38,22v-12l29-16l9,3.4v-1.4V45.5z"/>
	<path id="Kształt_531_kopia_3" class="st0" d="M49.5,27.5l-38,22v-12l29-16l9,3.4v-1.4V27.5z"/>
	<linearGradient id="Prostokąt_545_kopia_4_1_" gradientUnits="userSpaceOnUse" x1="12" y1="48.0001" x2="36" y2="48.0001">
		<stop  offset="0" style="stop-color:#AFCDFD"/>
		<stop  offset="1" style="stop-color:#D7E6FE"/>
	</linearGradient>
	<path id="Prostokąt_545_kopia_4" class="st2" d="M26,30.9V19.5l10,4.6v11.4L26,30.9z M33,43.1v11.6l-10-4.9v-6l5-3L33,43.1z
		 M27,76.5l-10-4.6v-6.7l4.3-2.5l5.7,2.5V76.5L27,76.5z M12,29.2l8,3.7V45l-8-3.7V29.8V29.2z"/>
</g>
<g id="shelf-left-2">
	<path id="Kształt_696_kopia_2-2" class="st0" d="M104.5,5.5l12-5l37,21v79l-11,6L104.5,5.5z"/>
	<path id="Kształt_657-2" class="st0" d="M142.5,106.5l-38-23v-78l38,21V106.5z"/>
	<path id="Kształt_531-2" class="st0" d="M113.5,10.5v66l28,17"/>
	<path id="Kształt_531_kopia-2" class="st1" d="M104.5,63.5v-4v1.4l9-3.4l29,16v12L104.5,63.5z"/>
	<path id="Kształt_531_kopia_2-2" class="st0" d="M104.5,45.5v-4v1.4l9-3.4l29,16v12L104.5,45.5z"/>
	<path id="Kształt_531_kopia_3-2" class="st0" d="M104.5,27.5v-4v1.4l9-3.4l29,16v12L104.5,27.5z"/>
	<linearGradient id="Prostokąt_545_kopia_5_1_" gradientUnits="userSpaceOnUse" x1="118.9733" y1="47.9764" x2="142" y2="47.9764">
		<stop  offset="0" style="stop-color:#AFCDFD"/>
		<stop  offset="1" style="stop-color:#D7E6FE"/>
	</linearGradient>
	<path id="Prostokąt_545_kopia_5" class="st3" d="M129,31V19.1l-10,4.6l0,11.9L129,31z M121,43.3v11.2l10-4.6l0.1-6.2l-4.8-2.8
		L121,43.3z M127.5,76.8L138,72v-7l-4.7-2.7l-5.3,2.5l-0.1,12L127.5,76.8z M141.4,29.4l-7.4,3.5V45l8-3.7V29.1L141.4,29.4z"/>
</g>
<g id="discs-old_kopia_3">
	<g id="disc-bottom">
		<path id="Elipsa_1306_kopia_13" class="st4" d="M82.1,95.7c-2.6-1.3-5.7-1.3-8.3,0c-0.6,0.3-1,0.7-1.4,1.2
			c-0.7-1.6-0.1-3.5,1.4-4.4c2.6-1.3,5.7-1.3,8.3,0c1.5,0.9,2.1,2.8,1.4,4.4C83.1,96.4,82.6,96,82.1,95.7z"/>
		<linearGradient id="Elipsa_1306_kopia_15_1_" gradientUnits="userSpaceOnUse" x1="34.2" y1="108.6583" x2="122" y2="108.6583">
			<stop  offset="0" style="stop-color:#AFCDFD"/>
			<stop  offset="1" style="stop-color:#D7E6FE"/>
		</linearGradient>
		<path id="Elipsa_1306_kopia_15" class="st5" d="M78.1,146.5c-39.3,0-43.9-22.3-43.9-22.3V93.5h0.2c0.9-5.6,5.2-11,12.7-15.3
			c17.2-9.8,44.9-9.8,62.1,0c7.5,4.3,11.7,9.8,12.7,15.4h0.2v30.7C122,124.2,117.4,146.5,78.1,146.5z"/>
		<path id="Elipsa_1306_kopia" class="st6" d="M109.1,114.1c-17.2,9.9-45.1,9.9-62.3,0s-17.2-25.9,0-35.8s45.1-9.9,62.3,0
			S126.3,104.2,109.1,114.1z"/>
	</g>
	<path id="Kształt_1245" class="st7" d="M51.5,99.5v-24"/>
	<path id="Kształt_1249" class="st8" d="M50.5,97.5l1.5,3l1.5-3H50.5z"/>
	<path id="Kształt_1245_kopia" class="st7" d="M103.5,99.5v-24"/>
	<path id="Kształt_1249_kopia" class="st8" d="M102.5,97.5l1.5,3l1.5-3H102.5z"/>
	<g id="disc-top">
		<path id="Elipsa_1306_kopia_9" class="st9" d="M121.2,63.8c-0.1,6.4-4.3,12.7-12.7,17.5c-17,9.8-44.5,9.8-61.5,0
			c-8.5-4.9-12.7-11.2-12.7-17.6V60l27.1,0.3c-0.5,2.8,1,5.7,4.7,7.8c6.5,3.7,16.9,3.7,23.4,0c3.5-2,5.1-4.8,4.8-7.4l27,0.3
			C121.2,60.9,121.2,63.5,121.2,63.8z"/>
		<path id="Elipsa_1306" class="st10" d="M108.5,79.2c-17,9.8-44.5,9.8-61.5,0s-17-25.5,0-35.3s44.5-9.8,61.5,0
			S125.4,69.4,108.5,79.2z"/>
	</g>
	<path id="Kształt_2886" class="st11" d="M68.4,56.6c0.5,0.1,1,0,1.4-0.4c0.4-0.3,0.8-0.6,1.2-0.9c3-1.5,6.5-1.8,9.7-0.9
		c0.5,0.2,1.1,0.1,1.6-0.1l3.3-1.9c0.3-0.1,0.5-0.4,0.4-0.7c-0.1-0.2-0.2-0.3-0.4-0.4c0,0-0.1-0.1-0.1-0.1c-2.3-0.9-4.7-1.4-7.1-1.5
		c-0.4,0-0.9,0.1-1.3,0.4c-1.6,1.6-5.1,2.1-7.8,1.3c-0.5-0.1-1-0.1-1.4,0.1c-1.9,0.7-3.5,1.9-4.9,3.3c-0.3,0.4-0.1,0.8,0.6,1
		c0.1,0,0.1,0,0.2,0.1L68.4,56.6z M87.6,53.6l-3.3,1.9c-0.3,0.1-0.4,0.4-0.3,0.7c0,0.1,0.1,0.1,0.1,0.2c1.7,1.9,1.1,4.1-1.5,5.6
		c-0.5,0.3-1,0.5-1.6,0.7c-0.4,0.1-0.7,0.4-0.6,0.8c0,0,0,0,0,0l1.2,2.6c0.2,0.3,0.4,0.4,0.7,0.5c0.4,0.1,0.8,0.1,1.1,0
		c1.5-0.4,2.9-1,4.2-1.7c0.6-0.3,1.1-0.7,1.6-1.1c0.2-0.2,0.3-0.5,0.2-0.7c0,0,0-0.1-0.1-0.1c-1.2-1.4-0.8-2.9,1.1-4
		c0.4-0.2,0.7-0.4,1.1-0.5c0.4-0.1,0.6-0.4,0.6-0.7c-0.3-1.6-1.2-3.1-2.5-4.1c-0.5-0.4-1.2-0.4-1.8-0.2
		C87.8,53.5,87.7,53.5,87.6,53.6L87.6,53.6L87.6,53.6z M76.7,63.4c-4.4,0-7.9-2.1-7.9-4.6c-0.1-0.4-0.5-0.7-1-0.7l-4.5-0.7
		c-0.6-0.1-1.2,0.1-1.6,0.5c0,0.1-0.1,0.1-0.1,0.1c-0.2,1.5,0.3,3,1.3,4.2c0.3,0.3,0.7,0.5,1.2,0.5c3.3,0,5.9,1.5,5.9,3.4
		c0.1,0.4,0.4,0.6,0.8,0.7c2.4,0.6,4.8,0.8,7.3,0.7c0.3,0,0.6-0.1,0.8-0.2c0.1,0,0.1,0,0.1-0.1c0.2-0.1,0.3-0.4,0.2-0.6L78,64
		C77.7,63.6,77.2,63.4,76.7,63.4L76.7,63.4z M61.6,64.9c-1.2,0.7-1.2,1.9,0,2.6c1.4,0.7,3.1,0.7,4.5,0c1.3-0.7,1.2-1.9,0-2.6l0,0
		C64.7,64.1,63,64.1,61.6,64.9z M92,60.1c1.5-0.8,3.3-0.8,4.8,0c1.3,0.8,1.3,2,0,2.8c-1.5,0.8-3.3,0.8-4.8,0
		C90.7,62,90.7,60.8,92,60.1L92,60.1z M69.7,47.2c1.5-0.8,3.3-0.8,4.8,0c1.3,0.8,1.3,2,0,2.8c-1.5,0.8-3.3,0.8-4.8,0
		C68.4,49.2,68.4,47.9,69.7,47.2L69.7,47.2z"/>
</g>
</svg>
