<svg version="1.1" id="server-back" xmlns="http://www.w3.org/2000/svg" x="0" y="0" viewBox="0 0 425.6 386" xml:space="preserve"><style>.st6{fill:#161a2e}.st8{stroke-width:6}.st10{fill:#161a2e}.st10,.st11,.st8{stroke:#161a2e}.st8{fill:#161a2e}.st11{fill:none}.st12{fill:#356bf2}.st13{fill:#00b7fe}</style><path id="shadow" d="M213 142.3c-2.9-.1-5.8.6-8.4 2-2.1 1.2-198.5 113.8-200.7 115.1s-3.5 2.9-3.5 4.8 1.3 3.6 3.5 4.8 198.6 113.8 200.7 115c5.3 2.7 11.5 2.7 16.7 0 2.1-1.2 198.6-113.9 200.7-115.1s3.5-2.9 3.5-4.8-1.3-3.6-3.5-4.8-198.5-113.8-200.6-115c-2.6-1.4-5.5-2.1-8.4-2" opacity=".08"/><g id="back"><linearGradient id="body_2_" gradientUnits="userSpaceOnUse" x1="-.014" y1="151" x2="425.012" y2="151"><stop offset=".48" stop-color="#d2d8e6"/><stop offset=".52" stop-color="#e0e4ef"/></linearGradient><path id="body" d="M425 123.4v57c0 1.9-1.3 3.6-3.5 4.8S223 298.8 220.9 300c-5.3 2.6-11.5 2.6-16.7 0C202 298.8 5.6 186.2 3.5 185S0 182.1 0 180.2v-57.5h.1c.5-1.7 1.7-3.1 3.3-3.9C5.6 117.6 202 3.3 204.1 2c5.3-2.7 11.5-2.7 16.7 0 2.1 1.3 198.5 115.6 200.7 116.8 1.6.8 2.8 2.2 3.3 3.9h.1v.7z" fill="url(#body_2_)"/><linearGradient id="body_3_" gradientUnits="userSpaceOnUse" x1="-.014" y1="151" x2="425.012" y2="151"><stop offset="0" stop-color="#bbc1d4" stop-opacity="0"/><stop offset=".35" stop-color="#bbc1d4" stop-opacity=".7"/><stop offset="1" stop-color="#bbc1d4" stop-opacity="0"/></linearGradient><path id="body_1_" d="M425 123.4v57c0 1.9-1.3 3.6-3.5 4.8S223 298.8 220.9 300c-5.3 2.6-11.5 2.6-16.7 0C202 298.8 5.6 186.2 3.5 185S0 182.1 0 180.2v-57.5h.1c.5-1.7 1.7-3.1 3.3-3.9C5.6 117.6 202 3.3 204.1 2c5.3-2.7 11.5-2.7 16.7 0 2.1 1.3 198.5 115.6 200.7 116.8 1.6.8 2.8 2.2 3.3 3.9h.1v.7z" fill="url(#body_3_)"/><linearGradient id="Kształt_1_kopia_33_1_" gradientUnits="userSpaceOnUse" x1="106.343" y1="285.666" x2="318.661" y2="73.348"><stop offset=".008" stop-color="#333c5e"/><stop offset="1" stop-color="#3f4b75"/></linearGradient><path id="Kształt_1_kopia_33" d="M212.5 58c-2.9-.1-5.7.6-8.3 2C202.1 61.2 7.5 173.5 5.4 174.7S2 177.6 2 179.5s1.3 3.6 3.4 4.8S202.1 297.8 204.2 299c5.2 2.6 11.4 2.6 16.6 0 2.1-1.2 196.7-113.5 198.8-114.7s3.4-2.9 3.4-4.8-1.3-3.6-3.4-4.8S222.9 61.2 220.8 60c-2.6-1.4-5.4-2-8.3-2" fill="url(#Kształt_1_kopia_33_1_)"/><linearGradient id="Kształt_1_kopia_15_1_" gradientUnits="userSpaceOnUse" x1="-.017" y1="62.505" x2="425.012" y2="62.505"><stop offset="0" stop-color="#e0e4ef"/><stop offset="1" stop-color="#ebeef5"/></linearGradient><path id="Kształt_1_kopia_15" d="M411.9 125c.1-.3.1-.7.1-1 0-1.8-1.2-3.4-3.2-4.6S222.4 11.1 220.4 9.9c-4.9-2.5-10.8-2.5-15.7 0-2 1.2-186.4 108.4-188.4 109.5S13 122.2 13 124c0 .3.1.7.1 1H.1c-.1-.4-.2-.9-.2-1.3 0-1.9 1.3-3.6 3.5-4.9S202 3.3 204.1 2c5.3-2.7 11.5-2.7 16.7 0 2.1 1.3 198.5 115.6 200.7 116.8s3.5 3 3.5 4.9c0 .4-.1.9-.2 1.3h-12.9z" fill="url(#Kształt_1_kopia_15_1_)"/><g id="dark" opacity=".32"><path id="Kształt_1231_kopia_6" class="st6" d="M263.7 100.6c2.2-1.3 3.4-2.9 3.4-4.6s-1.1-3.4-3.4-4.6L242.2 79l-21.6-12.3c-5.1-2.6-11.1-2.6-16.2 0L182.8 79l-21.6 12.3c-2.2 1.3-3.4 2.9-3.4 4.6s1.1 3.3 3.4 4.6l43.2 24.7c5.1 2.6 11.1 2.6 16.2 0l21.6-12.3 21.5-12.3z"/><path id="Kształt_1231_kopia_7" class="st6" d="M151.9 167.1c2.5-1.4 3.7-3.2 3.7-5.1s-1.2-3.7-3.7-5.1l-23.7-13.6-23.7-13.6c-5.6-2.8-12.2-2.8-17.8 0L63 143.3l-23.7 13.6c-2.5 1.4-3.7 3.2-3.7 5.1s1.2 3.7 3.7 5.1l47.5 27.1c5.6 2.8 12.2 2.8 17.8 0l23.7-13.6 23.6-13.5z"/><path id="Kształt_1231_kopia_8" class="st6" d="M218.9 205.1c2.5-1.4 3.7-3.2 3.7-5.1s-1.2-3.7-3.7-5.1l-23.7-13.6-23.7-13.6c-5.6-2.8-12.2-2.8-17.8 0L130 181.3l-23.7 13.6c-2.5 1.4-3.7 3.2-3.7 5.1s1.2 3.7 3.7 5.1l47.5 27.1c5.6 2.8 12.2 2.8 17.8 0l23.7-13.6 23.6-13.5z"/><path id="Kształt_1231_kopia_9" class="st6" d="M285.9 243.1c2.5-1.4 3.7-3.2 3.7-5.1s-1.2-3.7-3.7-5.1l-23.7-13.6-23.7-13.6c-5.6-2.8-12.2-2.8-17.8 0L197 219.3l-23.7 13.6c-2.5 1.4-3.7 3.2-3.7 5.1s1.2 3.7 3.7 5.1l47.5 27.1c5.6 2.8 12.2 2.8 17.8 0l23.7-13.6 23.6-13.5z"/><path id="Kształt_1992" d="M334.6 127.6l-98.7 56.6-6.2-3.6 98.7-56.6 6.2 3.6zm10.6 6.1l-98.7 56.6-6.6-3.8 98.7-56.6 6.6 3.8zm10.7 6.2l-98.7 56.6-6.2-3.6 98.7-56.6 6.2 3.6zm10.8 6.3L268 202.8l-6.2-3.6 98.7-56.6 6.2 3.6zm10.6 6.1l-98.7 56.6-6.2-3.6 98.7-56.6 6.2 3.6zm11 6.4l-98.7 56.6-6.2-3.6 98.7-56.6 6.2 3.6zm10.4 5.9L300 221.2l-6.2-3.6 98.7-56.6 6.2 3.6zm10.7 6.2l-98.7 56.6-6.2-3.6 98.7-56.6 6.2 3.6z" fill="#161a2e" stroke="#161a2e" stroke-width="2" stroke-linecap="round" stroke-linejoin="round"/><path id="Elipsa_1006_kopia_10" class="st8" d="M143.3 116.7c2-1 4.4-1 6.4 0 1.8 1 1.8 2.6 0 3.6-2 1-4.4 1-6.4 0-1.7-1-1.7-2.6 0-3.6z"/><path id="Elipsa_1006_kopia_9" class="st8" d="M164.3 127.7c2-1 4.4-1 6.4 0 1.8 1 1.8 2.6 0 3.6-2 1-4.4 1-6.4 0-1.7-1-1.7-2.6 0-3.6z"/><g id="lines" opacity=".72"><path id="Kształt_1985" class="st10" d="M191 116l-19 12"/><path id="Kształt_1992-2" class="st10" d="M172 133l73 42m-10-83l73 42"/><path id="Kształt_1999" class="st11" d="M230 120l16 9v17l21 13"/><path id="Kształt_2000" class="st11" d="M204 151v14l-18 11"/><path id="Kształt_2001" class="st11" d="M186 141l-19 1-19 12"/><path id="Kształt_1987" class="st10" d="M152 121l10 6-10-6z"/><path id="Kształt_1986" class="st10" d="M168 104l-17 11"/></g></g><g id="cond"><path id="Kształt_1032_kopia_2" class="st12" d="M149.7 120.2c-2 1-4.4 1-6.4 0-.8-.3-1.3-1.1-1.3-1.9v-9.8h9v9.8c-.1.8-.6 1.6-1.3 1.9z"/><path id="Elipsa_1006_kopia_8" class="st13" d="M143.3 106.8c2-1 4.4-1 6.4 0 1.8 1 1.8 2.7 0 3.8-2 1-4.4 1-6.4 0-1.7-1.1-1.7-2.8 0-3.8z"/></g><g id="cond_kopia"><path id="Kształt_1032_kopia_2-2" class="st12" d="M170.7 131.2c-2 1-4.4 1-6.4 0-.8-.3-1.3-1.1-1.3-1.9v-9.8h9v9.8c-.1.8-.6 1.6-1.3 1.9z"/><path id="Elipsa_1006_kopia_8-2" class="st13" d="M164.3 117.8c2-1 4.4-1 6.4 0 1.8 1 1.8 2.7 0 3.8-2 1-4.4 1-6.4 0-1.7-1.1-1.7-2.8 0-3.8z"/></g></g></svg>