<svg version="1.1" id="icon_-_skylake" xmlns="http://www.w3.org/2000/svg" x="0" y="0" viewBox="0 0 32 32" xml:space="preserve"><style>.st0{fill:none;stroke:#007bfc}.st1{fill-rule:evenodd;clip-rule:evenodd;fill:#007bfc}</style><path id="Prostokąt_zaokrąglony_521" class="st0" d="M6.5 5.5h18c1.1 0 2 .9 2 2v18c0 1.1-.9 2-2 2h-18c-1.1 0-2-.9-2-2v-18c0-1.1.9-2 2-2z"/><path id="Prostokąt_zaokrąglony_521_kopia" class="st0" d="M8.5 15.8v-4.3c0-1.1.9-2 2-2h3.8"/><path id="Prostokąt_zaokrąglony_521_kopia_2" class="st0" d="M22.5 17.5v4.1c0 1.1-1 1.9-2.1 1.9h-3.9"/><path id="Prostokąt_zaokrąglony_523" class="st1" d="M30.2 23h-1.4c-.4 0-.7-.2-.7-.5s.3-.5.7-.5h1.4c.4 0 .7.2.7.5s-.3.5-.7.5zm0-3h-1.4c-.4 0-.7-.2-.7-.5s.3-.5.7-.5h1.4c.4 0 .7.2.7.5s-.3.5-.7.5zm0-3h-1.4c-.4 0-.7-.2-.7-.5s.3-.5.7-.5h1.4c.4 0 .7.2.7.5s-.3.5-.7.5zm0-3h-1.4c-.4 0-.7-.2-.7-.5s.3-.5.7-.5h1.4c.4 0 .7.2.7.5s-.3.5-.7.5zm0-3h-1.4c-.4 0-.7-.2-.7-.5s.3-.5.7-.5h1.4c.4 0 .7.2.7.5s-.3.5-.7.5zm0-3h-1.4c-.4 0-.7-.2-.7-.5s.3-.5.7-.5h1.4c.4 0 .7.2.7.5s-.3.5-.7.5zm-5.7-4.1c-.3 0-.5-.3-.5-.7V1.8c0-.4.2-.7.5-.7s.5.3.5.7v1.4c0 .4-.2.7-.5.7zm-3 0c-.3 0-.5-.3-.5-.7V1.8c0-.4.2-.7.5-.7s.5.3.5.7v1.4c0 .4-.2.7-.5.7zm-3 0c-.3 0-.5-.3-.5-.7V1.8c0-.4.2-.7.5-.7s.5.3.5.7v1.4c0 .4-.2.7-.5.7zm-3 0c-.3 0-.5-.3-.5-.7V1.8c0-.4.2-.7.5-.7s.5.3.5.7v1.4c0 .4-.2.7-.5.7zm-3 0c-.3 0-.5-.3-.5-.7V1.8c0-.4.2-.7.5-.7s.5.3.5.7v1.4c0 .4-.2.7-.5.7zm-3 0c-.3 0-.5-.3-.5-.7V1.8c0-.4.2-.7.5-.7s.5.3.5.7v1.4c0 .4-.2.7-.5.7zm-3 0c-.3 0-.5-.3-.5-.7V1.8c0-.4.2-.7.5-.7s.5.3.5.7v1.4c0 .4-.2.7-.5.7zM2.3 26H.8c-.5 0-.8-.2-.8-.5s.3-.5.8-.5h1.5c.4 0 .7.2.7.5s-.3.5-.7.5zm0-3H.8c-.5 0-.8-.2-.8-.5s.3-.5.8-.5h1.5c.4 0 .7.2.7.5s-.3.5-.7.5zm0-3H.8c-.5 0-.8-.2-.8-.5s.3-.5.8-.5h1.5c.4 0 .7.2.7.5s-.3.5-.7.5zm0-3H.8c-.5 0-.8-.2-.8-.5s.3-.5.8-.5h1.5c.4 0 .7.2.7.5s-.3.5-.7.5zm0-3H.8c-.5 0-.8-.2-.8-.5s.3-.5.8-.5h1.5c.4 0 .7.2.7.5s-.3.5-.7.5zm0-3H.8c-.5 0-.8-.2-.8-.5s.3-.5.8-.5h1.5c.4 0 .7.2.7.5s-.3.5-.7.5zm0-3H.8C.3 8 0 7.8 0 7.5S.3 7 .8 7h1.5c.4 0 .7.2.7.5s-.3.5-.7.5zm26.5 17h1.4c.4 0 .7.2.7.5s-.3.5-.7.5h-1.4c-.4 0-.7-.2-.7-.5s.3-.5.7-.5z"/><path class="st1" d="M24.5 31.9c-.3 0-.5-.3-.5-.7v-1.4c0-.4.2-.7.5-.7s.5.3.5.7v1.4c0 .4-.2.7-.5.7m-3 0c-.3 0-.5-.3-.5-.7v-1.4c0-.4.2-.7.5-.7s.5.3.5.7v1.4c0 .4-.2.7-.5.7m-3 0c-.3 0-.5-.3-.5-.7v-1.4c0-.4.2-.7.5-.7s.5.3.5.7v1.4c0 .4-.2.7-.5.7m-3 0c-.3 0-.5-.3-.5-.7v-1.4c0-.4.2-.7.5-.7s.5.3.5.7v1.4c0 .4-.2.7-.5.7m-3 0c-.3 0-.5-.3-.5-.7v-1.4c0-.4.2-.7.5-.7s.5.3.5.7v1.4c0 .4-.2.7-.5.7m-3 0c-.3 0-.5-.3-.5-.7v-1.4c0-.4.2-.7.5-.7s.5.3.5.7v1.4c0 .4-.2.7-.5.7m-3 0c-.3 0-.5-.3-.5-.7v-1.4c0-.4.2-.7.5-.7s.5.3.5.7v1.4c0 .4-.2.7-.5.7"/></svg>